# xmcd
#
# Track frame offsets:
#	150
#	10056
#	22251
#	36058
#	43931
#	67743
#	86613
#	105866
#	117226
#	129217
#	151117
#	163562
#	172959
#
# Disc length: 3448 seconds
#
# Revision: 1
# Processed by: cddbd v1.5.2PL0 Copyright (c) Steve Scherf et al.
# Submitted via: audiograbber 1.83.01
#
DISCID=8f0d760d
DTITLE=Wildgoose, Jody - Lovely White Teeth
DYEAR=2004
DGENRE=Indie
TTITLE0=Black Widow
TTITLE1=Rabbits
TTITLE2=Irishmans Cheddar
TTITLE3=She's Alright
TTITLE4=Hello I Love You Jimi Hendrix
TTITLE5=Stereo
TTITLE6=Feathery Ones
TTITLE7=Don't Know Why
TTITLE8=Jolene
TTITLE9=Squeeze The Sigh
TTITLE10=Slowing Down
TTITLE11=Lemon Squeezer
TTITLE12=Wake Me Up
EXTD=
EXTT0=
EXTT1=
EXTT2=
EXTT3=
EXTT4=
EXTT5=
EXTT6=
EXTT7=
EXTT8=
EXTT9=
EXTT10=
EXTT11=
EXTT12=
PLAYORDER=
